<?xml version="1.0" encoding="UTF-8" standalone="no"?><!DOCTYPE svg PUBLIC "-//W3C//DTD SVG 1.1//EN" "http://www.w3.org/Graphics/SVG/1.1/DTD/svg11.dtd"><svg width="100%" height="100%" viewBox="0 0 308 116" version="1.1" xmlns="http://www.w3.org/2000/svg" xmlns:xlink="http://www.w3.org/1999/xlink" xml:space="preserve" xmlns:serif="http://www.serif.com/" style="fill-rule:evenodd;clip-rule:evenodd;stroke-linecap:round;stroke-linejoin:round;stroke-miterlimit:1.5;"><rect id="collection" x="0" y="0" width="308" height="115.5" style="fill:none;"/><circle cx="31" cy="32.128" r="15.5" style="fill:#2c00ff;stroke:#000;stroke-opacity:0;stroke-width:4.12px;"/><path d="M83.062,33.878l-31.124,16.644l-0.001,-33.286l31.126,16.642Z" style="fill:#2c00ff;stroke:#000;stroke-opacity:0;stroke-width:4.12px;"/><path d="M83.934,57.353l0,19.425c0,3.361 -2.729,6.09 -6.09,6.09l-19.821,0c-3.889,0 -7.047,-3.157 -7.047,-7.047c0,-13.802 11.206,-25.008 25.008,-25.008l1.409,0c3.61,0 6.54,2.931 6.54,6.54Z" style="fill:#2c00ff;stroke:#000;stroke-opacity:0;stroke-width:4.12px;"/><path d="M47.622,59.439l0,15.866c0,4.308 -3.498,7.806 -7.806,7.806l-16.12,0c-4.985,0 -9.032,-4.047 -9.032,-9.032l0,-15.291c0,-4.267 3.464,-7.731 7.731,-7.731l16.843,0c4.627,0 8.383,3.756 8.383,8.383Z" style="fill:#2c00ff;stroke:#000;stroke-opacity:0;stroke-width:4.12px;"/><g transform="matrix(52,0,0,52,284.5,79.060265)"></g><text x="93.2px" y="79.06px" style="font-family:'InaiMathi-Bold', 'InaiMathi';font-weight:700;font-size:52px;fill:#1d00ab;stroke:#1d00ab;stroke-width:1.5px;stroke-linecap:butt;stroke-miterlimit:2;">E<tspan x="122.639px 149.375px 175.122px 201.649px 229.685px 256.42px " y="79.06px 79.06px 79.06px 79.06px 79.06px 79.06px ">ducode</tspan></text></svg>